# xmcd CD database file
#
# Track frame offsets:
#	150
#	28762
#	47450
#	94192
#	125875
#	159775
#
# Disc length: 2755 seconds
#
# Revision: 0
# Processed by: cddbd v1.5.1PL2 Copyright (c) Steve Scherf et al.
# Submitted via: CDex 1.51
#
DISCID=440ac106
DTITLE=The Dave Brubeck Quartet - in Europe
DYEAR=1958
DGENRE=Jazz
TTITLE0=Wonderful Copenhagen
TTITLE1=My one bad Habit is falling in Love
TTITLE2=Tangerine
TTITLE3=The Wright Groove
TTITLE4=Like Someone in Love
TTITLE5=Watusi Drums
EXTD=YEAR: 1958
EXTT0=
EXTT1=
EXTT2=
EXTT3=
EXTT4=
EXTT5=
PLAYORDER=
